<svg viewBox="0 0 192 192" xmlns="http://www.w3.org/2000/svg"><linearGradient id="a" gradientUnits="userSpaceOnUse" x1="75.2" x2="116.8" y1="88.9" y2="47.4"><stop offset="0" stop-color="#34cdfa"/><stop offset="1" stop-color="#e8d9f1"/></linearGradient><path d="M96 0a72 72 0 00-72 72c0 51 64 115 66 118a8 8 0 0012 0c2-3 66-67 66-118A72 72 0 0096 0z" fill="#67d9fb"/><path d="M48 64A72 72 0 0186 1a72 72 0 00-62 71c0 51 64 115 66 118a8 8 0 0012 0l10-11c-13-13-64-69-64-115z" fill="#34cdfa"/><circle cx="96" cy="72" fill="#e6f9fe" r="48"/><path d="M130 60L98 44a4 4 0 00-4 0L62 60l4 8 10-6v26a4 4 0 004 4h32a4 4 0 004-4V62l10 6z" fill="url(#a)"/></svg>