<svg viewBox="0 0 512 512" xmlns="http://www.w3.org/2000/svg"><linearGradient id="a" gradientUnits="userSpaceOnUse" x1="0" x2="512" y1="256" y2="256"><stop offset="0" stop-color="#00f2fe"/><stop offset="0" stop-color="#03effe"/><stop offset=".3" stop-color="#24d2fe"/><stop offset=".6" stop-color="#3cbdfe"/><stop offset=".8" stop-color="#4ab0fe"/><stop offset="1" stop-color="#4facfe"/></linearGradient><path d="M140 423h-30c-11 0-20-9-20-20V217c0-11 9-20 20-20h30c11 0 20 9 20 20v186c0 11-9 20-20 20zm27-298a41 41 0 10-82 0 41 41 0 0082 0zm255 278V299c0-61-13-106-84-106-34 0-57 17-66 35v-11c0-11-9-20-20-20h-28c-11 0-20 9-20 20v186c0 11 9 20 20 20h28c11 0 20-9 20-20v-92c0-30 7-58 44-58 36 0 37 34 37 60v90c0 11 9 20 20 20h29c11 0 20-9 20-20zm90 29a20 20 0 10-40 0c0 22-18 40-40 40H80c-22 0-40-18-40-40V80c0-22 18-40 40-40h352c22 0 40 18 40 40v251a20 20 0 1040 0V80c0-44-36-80-80-80H80C36 0 0 36 0 80v352c0 44 36 80 80 80h352c44 0 80-36 80-80zm0 0" fill="url(#a)"/></svg>