<svg viewBox="0 0 512 512" xmlns="http://www.w3.org/2000/svg"><linearGradient id="a" gradientTransform="matrix(1 0 0 -1 0 -5762)" gradientUnits="userSpaceOnUse" x1="0" x2="512" y1="-6018" y2="-6018"><stop offset="0" stop-color="#31d8ff"/><stop offset="1" stop-color="#ff80ff"/></linearGradient><path d="M512 256a256 256 0 11-512 0 256 256 0 01512 0zm0 0" fill="url(#a)"/><path d="M430 143l-4-3c-6-4-14-7-22-7H108a36 36 0 00-37 37v172c0 21 16 37 37 37h296c21 0 37-16 37-37V170c0-11-4-20-11-27zm-56 20l-118 75-118-75zm30 186H108c-4 0-7-3-7-7V175l147 94 8 2 8-2 147-94v167c0 4-3 7-7 7zm0 0" fill="#fff"/></svg>