<svg viewBox="0 0 512 512" xmlns="http://www.w3.org/2000/svg"><linearGradient id="a" gradientTransform="matrix(1 0 0 -1 0 -10886)" gradientUnits="userSpaceOnUse" x1="0" x2="512" y1="-11142" y2="-11142"><stop offset="0" stop-color="#00f1ff"/><stop offset=".2" stop-color="#00d8ff"/><stop offset=".5" stop-color="#00c0ff"/><stop offset=".8" stop-color="#00b2ff"/><stop offset="1" stop-color="#00adff"/></linearGradient><path d="M512 256a256 256 0 11-512 0 256 256 0 01512 0zm0 0" fill="url(#a)"/><path d="M337 433h-1c-25 0-51-6-79-18a15 15 0 1112-28c24 10 47 16 67 16 25 0 46-7 61-22 8-9 8-24-1-33-36-34-53-32-69-17l-25 26c-5 4-11 5-17 3-2-1-36-17-75-56l-2-2c-39-39-55-73-56-75-2-6-1-12 3-17l26-25c15-16 17-33-17-69-9-9-24-9-33-1a84 84 0 00-22 61c0 49 28 106 75 152 8 9 19 18 30 27a15 15 0 01-19 23l-33-28c-52-52-83-117-83-174a113 113 0 0132-83c21-20 54-18 74 2 19 20 30 36 34 51 6 22 1 42-17 60l-18 18c7 11 21 33 45 57l2 2c24 24 45 38 57 45l18-18c18-18 38-23 60-17 15 4 31 15 51 34 20 20 22 53 2 74l-1 1c-20 20-48 31-81 31zm0 0" fill="#fff"/></svg>